<?xml version="1.0" standalone="no"?>
<!DOCTYPE svg PUBLIC "-//W3C//DTD SVG 20010904//EN"
 "http://www.w3.org/TR/2001/REC-SVG-20010904/DTD/svg10.dtd">
<svg version="1.0" xmlns="http://www.w3.org/2000/svg"
 width="890.000000pt" height="1280.000000pt" viewBox="0 0 890.000000 1280.000000"
 preserveAspectRatio="xMidYMid meet">
<metadata>
Created by potrace 1.15, written by Peter Selinger 2001-2017
</metadata>
<g transform="translate(0.000000,1280.000000) scale(0.100000,-0.100000)"
fill="#000000" stroke="none">
<path d="M7261 12773 c-64 -121 -771 -2411 -907 -2937 l-38 -149 -53 112 c-69
148 -103 191 -150 191 -47 0 -163 -56 -363 -175 -91 -54 -166 -98 -167 -99 -3
-2 -89 -496 -86 -496 2 0 28 20 58 44 29 25 85 62 122 84 70 41 285 142 302
142 5 0 22 -15 37 -32 l27 -33 -6 -150 c-7 -165 -46 -544 -106 -1015 -99 -786
-187 -1438 -192 -1432 -11 11 -143 483 -212 756 l-63 248 -41 -48 c-22 -27
-47 -63 -56 -80 -45 -87 -162 -467 -367 -1184 -166 -581 -243 -835 -312 -1020
-69 -186 -97 -236 -166 -292 l-57 -48 -100 -445 -100 -444 -6 142 c-4 78 -10
477 -14 887 -8 722 -4 897 23 1054 l7 38 153 -147 c83 -81 152 -140 152 -133
0 50 -25 196 -47 268 -33 113 -123 296 -166 340 -19 20 -58 46 -86 60 l-51 23
0 131 c0 72 5 241 10 376 26 687 31 929 21 1048 -13 154 -22 176 -79 180 -39
3 -42 2 -42 -23 0 -27 -59 -1491 -85 -2125 -8 -195 -15 -368 -15 -383 0 -23
-3 -27 -19 -22 -32 10 -83 -84 -303 -559 -72 -154 -137 -297 -145 -316 -11
-25 -17 -30 -23 -20 -4 8 -51 142 -104 298 -53 155 -101 293 -106 306 -7 21
-13 23 -42 17 -72 -15 -143 -161 -570 -1176 -115 -275 -215 -511 -220 -525
-10 -22 -13 -15 -25 59 -9 57 -23 103 -44 139 -42 74 -48 138 -55 587 -9 512
9 770 76 1105 47 238 102 399 300 895 61 154 203 469 220 488 9 11 202 -87
385 -196 87 -53 161 -95 163 -93 5 5 -312 528 -382 631 -72 105 -146 187 -209
233 l-45 32 -71 -177 c-96 -245 -118 -303 -241 -663 -180 -524 -216 -615 -270
-676 -37 -43 -37 -65 -5 276 14 146 25 292 25 325 0 54 -53 616 -95 1012 -24
223 -63 501 -80 568 -16 60 -35 85 -66 85 -18 0 -18 12 -39 -780 -15 -544 -36
-843 -63 -899 -7 -14 -23 -28 -36 -31 l-23 -5 -2 -273 c0 -167 -5 -272 -11
-273 -5 0 -22 46 -38 103 -58 212 -251 548 -404 704 -43 44 -147 124 -160 124
-5 0 -42 -82 -82 -182 -253 -627 -337 -818 -658 -1503 -229 -487 -317 -682
-358 -790 -13 -33 -33 -84 -44 -113 -12 -29 -17 -50 -11 -47 21 13 98 137 507
820 406 678 572 947 637 1030 51 66 129 155 136 155 16 0 132 -148 164 -209
98 -187 213 -587 285 -998 24 -134 70 -460 106 -743 14 -113 28 -214 31 -225
41 -140 -310 577 -556 1138 -24 53 -48 97 -54 97 -7 0 -40 -9 -73 -21 -72 -24
-97 -51 -202 -216 -103 -164 -237 -415 -469 -878 -287 -575 -522 -1079 -577
-1240 -31 -92 -86 -277 -83 -281 2 -1 143 259 313 579 545 1026 694 1290 792
1407 l57 68 22 -31 c39 -60 286 -519 354 -661 270 -560 365 -927 440 -1697 36
-368 95 -1099 89 -1091 -4 4 -91 180 -193 392 -395 812 -620 1187 -850 1415
-74 73 -115 104 -216 161 l-125 71 -8 -211 c-9 -236 -2 -590 14 -735 6 -53 21
-154 35 -225 13 -71 24 -134 24 -141 0 -6 -25 -17 -56 -24 -105 -24 -156 -93
-278 -375 -31 -72 -56 -132 -56 -135 0 -3 19 13 43 36 23 22 64 57 91 78 52
39 217 125 238 125 7 0 80 -118 162 -263 218 -381 298 -516 397 -662 128 -188
204 -280 383 -460 208 -210 282 -301 419 -521 l26 -42 -277 -6 c-599 -14 -886
-32 -933 -57 -11 -5 -15 -17 -12 -32 l5 -24 811 -7 c447 -3 1267 -11 1822 -17
556 -6 1611 -12 2345 -13 1317 -1 1335 -1 1370 19 l35 20 -35 3 c-584 50
-1530 134 -1572 138 l-58 7 0 112 c0 194 39 332 160 570 94 186 534 942 587
1009 49 63 116 111 178 127 23 7 85 9 143 7 l104 -5 -8 86 c-9 109 -17 138
-50 172 -35 37 -44 91 -33 213 29 337 159 735 286 876 54 60 86 80 207 129
l95 39 223 -338 c122 -186 224 -337 226 -335 5 5 -47 360 -68 464 -29 137 -55
220 -117 368 l-55 132 -112 38 c-94 32 -124 37 -198 38 -49 0 -88 1 -88 3 0
22 249 876 286 982 3 8 37 -72 75 -179 38 -107 72 -197 76 -200 3 -3 3 84 0
194 -9 291 -31 413 -173 958 l-86 329 23 25 c23 24 28 25 99 19 82 -6 183 -27
416 -83 l150 -36 147 -256 c162 -284 255 -466 407 -801 140 -308 294 -606 358
-695 24 -34 8 168 -28 340 -177 855 -310 1261 -495 1520 -63 89 -341 365 -555
553 -249 217 -208 219 -490 -18 -118 -98 -218 -179 -222 -180 -3 0 -10 15 -13
33 -39 180 -167 579 -196 611 -4 5 -45 -9 -94 -32 -69 -34 -102 -57 -169 -124
-158 -159 -268 -325 -395 -595 l-76 -162 -164 -186 c-90 -102 -165 -184 -168
-182 -5 5 198 1316 258 1667 100 588 196 987 275 1143 94 184 263 218 480 94
404 -230 598 -428 780 -797 38 -76 72 -139 75 -139 3 -1 4 11 2 27 -4 38 -53
727 -53 755 0 36 -354 465 -565 686 -103 107 -257 235 -276 229 -4 -2 -99
-106 -210 -233 -111 -126 -205 -231 -208 -233 -7 -2 84 562 119 733 63 318
192 826 382 1505 338 1215 388 1406 397 1533 6 85 1 105 -18 70z m-1890 -6068
c4 -77 10 -490 13 -918 l7 -778 -61 41 c-34 23 -63 40 -65 38 -2 -2 -11 -269
-19 -593 -19 -722 -26 -855 -45 -855 -4 0 -12 24 -18 53 -7 28 -23 102 -37
162 -14 61 -42 202 -61 315 -60 351 -94 454 -221 677 l-76 135 17 92 c77 404
386 1498 481 1704 29 63 37 73 56 70 22 -3 23 -7 29 -143z m1280 -167 c21 -17
51 -52 66 -77 35 -60 144 -373 134 -386 -253 -331 -357 -454 -398 -471 -18 -8
-43 -29 -57 -46 -81 -105 -276 -375 -371 -513 -142 -206 -364 -439 -392 -412
-7 7 30 206 63 340 43 180 91 285 252 551 108 180 135 235 216 441 61 155 71
173 108 200 68 51 159 155 247 283 46 67 85 122 88 122 2 0 22 -14 44 -32z
m301 -953 c45 -85 56 -148 34 -199 -8 -20 -77 -102 -153 -184 -183 -195 -275
-298 -307 -347 -15 -21 -40 -45 -56 -52 -17 -6 -44 -33 -61 -60 -49 -77 -264
-519 -306 -630 l-38 -103 -37 0 c-50 0 -87 -33 -198 -179 -116 -150 -157 -197
-165 -190 -15 16 -25 149 -25 357 l0 222 42 68 c114 183 335 489 433 600 127
145 508 544 649 680 122 118 134 119 188 17z m-2962 -452 c0 -5 5 -66 10 -138
6 -71 10 -215 11 -320 0 -259 -22 -399 -66 -419 -19 -8 -20 -19 -21 -215 -1
-113 -5 -224 -11 -246 l-10 -40 -32 100 c-65 205 -133 594 -134 775 0 149 11
195 86 348 62 126 93 162 136 162 17 0 31 -3 31 -7z m-778 -375 c8 -7 34 -49
58 -92 42 -79 43 -81 37 -155 -12 -152 -95 -330 -174 -375 -14 -8 -114 37
-138 60 -23 24 -18 74 16 155 16 41 53 139 81 219 68 197 82 218 120 188z
m1401 -375 c77 -124 205 -347 238 -417 47 -100 61 -151 188 -676 56 -228 117
-466 137 -528 45 -146 52 -229 61 -716 l6 -388 -24 12 c-13 7 -41 30 -61 52
-29 31 -43 39 -65 36 -24 -3 -34 -14 -66 -78 -20 -41 -58 -140 -83 -220 -25
-80 -77 -243 -115 -363 -41 -126 -69 -231 -67 -249 3 -28 11 -21 143 133 77
90 155 172 173 182 51 30 58 16 66 -126 16 -285 36 -727 36 -784 l0 -63 -365
0 -366 0 7 212 c5 176 2 251 -15 430 -30 309 -26 852 9 1303 18 221 21 228
114 201 67 -20 111 -66 151 -161 71 -167 120 -244 140 -223 9 9 -22 354 -41
458 -21 114 -59 210 -126 311 -69 106 -171 235 -197 248 -28 16 -50 -20 -116
-186 l-54 -138 -1 65 c0 36 5 194 10 350 17 482 49 726 145 1110 30 124 58
231 60 238 2 6 16 12 30 12 18 0 31 -10 48 -37z m-1113 -205 c12 -40 53 -172
91 -293 71 -222 87 -301 104 -515 6 -75 5 -83 -8 -70 -40 41 -409 589 -419
622 -20 67 14 141 118 257 39 43 63 62 91 70 1 1 12 -32 23 -71z m-716 -406
c3 -26 13 -175 21 -332 17 -317 31 -426 69 -546 41 -127 77 -303 78 -372 0
-79 -17 -107 -74 -122 -74 -19 -74 -18 -24 -57 108 -84 169 -197 381 -707 252
-606 406 -923 587 -1206 100 -158 135 -226 122 -239 -7 -7 -1376 -3 -1383 5
-8 8 19 572 34 694 22 180 63 294 111 306 45 11 114 -23 179 -91 46 -47 81
-101 150 -229 50 -92 101 -177 113 -189 l24 -22 -7 95 c-22 306 -131 745 -245
985 -58 123 -129 222 -167 231 -61 16 -151 -60 -234 -196 l-51 -85 6 250 c24
920 64 1249 203 1665 79 236 95 260 107 162z"/>
</g>
</svg>
